<?xml version="1.0" encoding="UTF-8"?>
<svg width="145px" height="28px" viewBox="0 0 145 28" version="1.1" xmlns="http://www.w3.org/2000/svg" xmlns:xlink="http://www.w3.org/1999/xlink">
    <!-- Generator: Sketch 64 (93537) - https://sketch.com -->
    <title>logo/factset</title>
    <desc>Created with Sketch.</desc>
    <g id="Evaluation-Layout" stroke="none" stroke-width="1" fill="none" fill-rule="evenodd">
        <g id="evaluation-layout-v1.3" transform="translate(-125.000000, -90.000000)" fill="#00AEEF" fill-rule="nonzero">
            <g id="header" transform="translate(-0.500000, 0.000000)">
                <g id="logo/factset" transform="translate(125.500000, 90.000000)">
                    <g id="FactSet-logo">
                        <g id="Logo">
                            <g id="FACTSET">
                                <path d="M68.4492063,5.74736842 L68.4492063,25.0035088 C68.4492063,26.5263158 67.3444444,27.7052632 65.9174603,27.7052632 C64.4904762,27.7052632 63.3396825,26.5263158 63.3396825,25.0035088 L63.3396825,5.74736842 L51.0952381,5.74736842 C46.8603175,5.64912281 43.4539683,9.28421053 43.4539683,13.8035088 C43.4539683,18.322807 46.9063492,21.8596491 51.1873016,22.0070175 L55.8825397,22.0070175 C57.2634921,22.0070175 58.368254,23.1859649 58.368254,24.7087719 C58.368254,26.2315789 57.2634921,27.4105263 55.8365079,27.4105263 L51.0952381,27.4105263 C44.1904762,27.2631579 38.5746032,21.2210526 38.5746032,13.8035088 C38.5746032,6.38596491 44.1904762,0.442105263 51.0952381,0.343859649 L73.7428571,0.343859649 C75.1698413,0.343859649 76.2746032,1.52280702 76.2746032,3.04561404 C76.2746032,4.56842105 75.1698413,5.74736842 73.7428571,5.74736842 L68.4492063,5.74736842 Z" id="Path"></path>
                                <path d="M5.10952381,25.0035088 C5.10952381,26.5263158 3.95873016,27.7052632 2.57777778,27.7052632 C1.1968254,27.7052632 0,26.5263158 0,25.0035088 L0,3.04561404 C0,1.52280702 1.15079365,0.343859649 2.53174603,0.343859649 L14.4079365,0.343859649 C15.7888889,0.294736842 16.9857143,1.57192982 16.9857143,3.04561404 C16.9857143,4.51929825 15.7888889,5.74736842 14.4539683,5.79649123 L5.06349206,5.79649123 L5.06349206,25.0035088 L5.10952381,25.0035088 Z M8.60793651,10.8070175 C7.31904762,10.8070175 6.35238095,11.8385965 6.35238095,13.1649123 C6.35238095,14.5403509 7.36507937,15.522807 8.56190476,15.522807 L14.1777778,15.522807 C15.4206349,15.522807 16.3873016,14.4912281 16.3873016,13.1649123 C16.3873016,11.8385965 15.4206349,10.8070175 14.1777778,10.8070175 L8.60793651,10.8070175 Z" id="Shape"></path>
                                <path d="M28.2174603,18.2736842 C29.4603175,18.2736842 30.4730159,19.3052632 30.4730159,20.6315789 C30.4730159,22.0070175 29.4142857,22.9894737 28.2174603,22.9894737 L25.1793651,22.9894737 C23.9365079,22.9894737 22.9238095,21.9578947 22.9238095,20.6315789 C22.9238095,19.3052632 23.9825397,18.2245614 25.1793651,18.2736842 L28.2174603,18.2736842 Z M22.1412698,6.53333333 L14.2698413,23.7754386 C13.6714286,25.1508772 14.1777778,26.7719298 15.4206349,27.4105263 C16.7095238,28.0491228 18.2285714,27.5087719 18.8269841,26.1333333 L26.6984127,8.89122807 L34.5698413,26.1824561 C35.168254,27.5578947 36.6873016,28.0982456 37.9761905,27.4596491 C39.2650794,26.8210526 39.7714286,25.2 39.1269841,23.8245614 L31.2555556,6.53333333 L28.815873,1.27719298 C28.815873,1.27719298 28.3095238,0.049122807 26.652381,0.049122807 C24.9952381,0.049122807 24.4888889,1.27719298 24.4888889,1.27719298 L22.1412698,6.53333333 Z" id="Shape"></path>
                                <path d="M94.4111111,20.5824561 C94.4111111,24.3157895 91.5571429,27.3614035 88.0587302,27.3614035 L79.1746032,27.3614035 C77.747619,27.3614035 76.6428571,26.1333333 76.6428571,24.6596491 C76.6428571,23.1368421 77.7936508,22.0561404 79.1746032,21.9578947 L87.5984127,21.9578947 C88.4269841,22.0561404 89.0714286,21.4175439 89.0714286,20.5824561 C89.0714286,20.0421053 88.8412698,19.6 88.4730159,19.3052632 L78.7603175,12.2807018 C78.1619048,11.7403509 76.6888889,10.7087719 76.6888889,7.51578947 C76.6888889,3.53684211 79.6809524,0.343859649 83.4095238,0.343859649 L90.6825397,0.343859649 C92.1095238,0.343859649 93.2142857,1.57192982 93.2142857,3.04561404 C93.2142857,4.56842105 92.0634921,5.74736842 90.6825397,5.74736842 L83.2253968,5.74736842 C82.3968254,5.79649123 81.752381,6.48421053 81.752381,7.36842105 C81.752381,7.90877193 81.8904762,8.10526316 82.2126984,8.44912281 L92.0634921,15.7684211 C93.5365079,16.8 94.4111111,18.2736842 94.4111111,20.5824561 Z" id="Path"></path>
                                <path d="M110.936508,10.8070175 C112.179365,10.8070175 113.146032,11.8385965 113.146032,13.1649123 C113.146032,14.5403509 112.179365,15.522807 110.936508,15.522807 L105.320635,15.522807 C104.077778,15.522807 103.111111,14.4912281 103.111111,13.1649123 C103.111111,11.8385965 104.077778,10.8070175 105.366667,10.8070175 L110.936508,10.8070175 Z M96.7587302,2.99649123 C96.7587302,1.47368421 97.9095238,0.294736842 99.2904762,0.294736842 L131.788889,0.294736842 C133.215873,0.294736842 134.320635,1.47368421 134.320635,2.99649123 C134.320635,4.51929825 133.215873,5.69824561 131.788889,5.69824561 L126.495238,5.69824561 L126.495238,24.954386 C126.495238,26.477193 125.390476,27.6561404 123.963492,27.6561404 C122.536508,27.6561404 121.385714,26.477193 121.385714,24.954386 L121.385714,5.69824561 L101.77619,5.69824561 L101.77619,21.9087719 L111.120635,21.9087719 C112.547619,21.9087719 113.652381,23.1368421 113.652381,24.6105263 C113.652381,26.1333333 112.501587,27.3122807 111.120635,27.3122807 L99.2444444,27.3122807 C97.8174603,27.3122807 96.7126984,26.0842105 96.7126984,24.6105263 L96.7587302,2.99649123 Z" id="Shape"></path>
                            </g>
                            <g id="TM" transform="translate(135.333333, 0.000000)">
                                <polygon id="Path" points="2.62380952 1.27719298 2.62380952 5.64912281 1.74920635 5.64912281 1.74920635 1.27719298 0.276190476 1.27719298 0.276190476 0.392982456 4.0968254 0.392982456 4.0968254 1.27719298"></polygon>
                                <polygon id="Path" points="8.74603175 5.6 8.74603175 1.86666667 7.45714286 5.55087719 6.81269841 5.55087719 5.52380952 1.81754386 5.52380952 5.6 4.64920635 5.6 4.64920635 0.392982456 5.84603175 0.392982456 7.13492063 4.12631579 8.42380952 0.392982456 9.57460317 0.392982456 9.57460317 5.64912281 8.74603175 5.64912281"></polygon>
                            </g>
                        </g>
                    </g>
                </g>
            </g>
        </g>
    </g>
</svg>